<svg xmlns="http://www.w3.org/2000/svg" version="1.1" viewBox="-5.0 -10.0 70.0 95.0">
 <path d="m13.969 84.613h7.6445c0.90234 0 1.6992-0.57812 1.9805-1.4375l2.3633-7.1992 19.793 15.406v0.003907c2 1.5508 4.7656 1.6523 6.875 0.25781l17.219-11.438 4.5742-3.125 1.9805 6.0312h-0.003907c0.28125 0.85938 1.0781 1.4375 1.9805 1.4375h7.6445c0.55469 0 1.082-0.21875 1.4727-0.60938 0.39062-0.39062 0.61328-0.92188 0.61328-1.4727v-32.855c0-0.55078-0.22266-1.082-0.61328-1.4727-0.39063-0.39062-0.91797-0.60938-1.4727-0.60938h-18.414c-0.66797 0-1.293 0.32031-1.6875 0.85938-0.39062 0.53906-0.5 1.2344-0.29297 1.8711l0.80078 2.4492-13.906-2.4414c-1.8398-0.31641-3.7227 0.25-5.082 1.5312l-2.9062 2.793-11.363-0.64453 1.207-3.6875c0.20703-0.63672 0.097656-1.332-0.29297-1.8711-0.39453-0.53906-1.0195-0.85938-1.6875-0.85938h-18.426c-1.1523 0-2.082 0.93359-2.082 2.082v32.918c0 0.55078 0.21875 1.082 0.60938 1.4727s0.92188 0.60938 1.4727 0.60938zm69.98-32.918v28.75l-4.0547 0.003907-9.375-28.75zm-33.625 3.125v0.003907c0.39062-0.38281 0.94141-0.55078 1.4766-0.44922l16.094 2.8242 5.207 15.832-4.168 2.8008-16.258-15.414c-0.79688-0.73438-2.0234-0.73438-2.8203 0l-5.0625 4.4453c-0.69922 0.64453-1.7891 0.60156-2.4336-0.097656s-0.60156-1.7891 0.097656-2.4336zm-18.488 3.2305 8.5625 0.48047-0.81641 0.84375c-2.2656 2.2266-2.3555 5.8555-0.19922 8.1914 2.1562 2.3359 5.7773 2.5352 8.1797 0.45312l3.6445-3.2383 14.168 13.469-15.051 9.9258c-0.62109 0.41016-1.4297 0.375-2.0117-0.082031l-20.688-16.094c-0.097656-0.070312-0.19922-0.13672-0.30078-0.19922l4.5-13.75zm-15.781-6.3555 13.465 0.003907-9.375 28.75h-4.0938zm19.855-7.293 28.184 0.003906c3.4531 0 6.25-2.7969 6.25-6.25v-16.668c0-3.4492-2.7969-6.25-6.25-6.25h-4.3867c-0.97656-4.5781-5.0234-7.8516-9.707-7.8516s-8.7305 3.2734-9.707 7.8516h-4.3867c-3.4531 0-6.25 2.8008-6.25 6.25v16.668c0.003906 3.4492 2.8008 6.2383 6.25 6.2383zm28.188-4.168-28.191 0.003906c-1.1523 0-2.082-0.92969-2.082-2.082v-9.4492h6.043l-0.003907 2.543c0 1.1523 0.93359 2.082 2.0859 2.082 1.1484 0 2.082-0.92969 2.082-2.082v-2.543h11.457v2.543c0 1.1523 0.93359 2.082 2.0859 2.082 1.1484 0 2.082-0.92969 2.082-2.082v-2.543h6.4688v9.4375c0 1.1328-0.90234 2.0547-2.0312 2.0859zm-14.098-28.691c2.3789 0.003906 4.5078 1.4609 5.375 3.6758h-10.75c0.86719-2.2148 2.9961-3.6719 5.375-3.6758zm-14.094 7.8438h28.188c0.55078 0 1.082 0.21875 1.4727 0.60938s0.60938 0.92188 0.60938 1.4727v3.0742h-32.352v-3.0742c0-1.1523 0.92969-2.082 2.082-2.082z"/>
<text x="0.0" y="117.5" font-size="5.0" font-weight="bold" font-family="Arbeit Regular, Helvetica, Arial-Unicode, Arial, Sans-serif" fill="#000000"></text><text x="0.0" y="122.5" font-size="5.0" font-weight="bold" font-family="Arbeit Regular, Helvetica, Arial-Unicode, Arial, Sans-serif" fill="#000000"></text></svg>