<svg xmlns="http://www.w3.org/2000/svg" data-name="Layer 56" viewBox="0 0 80 105" x="0px" y="0px"><path d="M3.27,88.07a5.1,5.1,0,0,0,5.09,5.09H91.19a5.09,5.09,0,0,0,5.08-5.09V80.25a5.06,5.06,0,0,0-3.67-4.86c-.32-3.86-1.86-16.08-8.59-26.85,5.5-6.43,8.1-13,7.72-19.51C91,15.66,78.09,7.42,77.54,7.07a1.5,1.5,0,0,0-2.18,1.86c.06.13,5.32,12.69.37,19.93C74,31.36,71.22,33,67.4,33.67A38.26,38.26,0,0,0,58.77,31v-.73a5.09,5.09,0,0,0-5.08-5.09H45.86a5.1,5.1,0,0,0-5.09,5.09V31a38.33,38.33,0,0,0-8.62,2.69c-3.82-.72-6.63-2.31-8.33-4.81-4.95-7.24.31-19.8.37-19.93a1.51,1.51,0,0,0-.41-1.73A1.49,1.49,0,0,0,22,7.07c-.55.35-13.41,8.59-14.19,22C7.44,35.57,10,42.11,15.53,48.54,8.81,59.31,7.27,71.53,7,75.39a5.07,5.07,0,0,0-3.68,4.86Zm7.55-58.84c.42-7.5,5.39-13.34,9-16.63-1.26,4.88-2.25,12.44,1.5,18a13.94,13.94,0,0,0,6.92,5.16A37.83,37.83,0,0,0,17.27,46C12.67,40.35,10.5,34.75,10.82,29.23Zm30,4.81V75.16H10a62.87,62.87,0,0,1,5.49-20.44C20.94,43.27,29.43,36.35,40.77,34Zm5.09-5.88h7.83a2.09,2.09,0,0,1,2.08,2.09V75.16h-12V30.25A2.1,2.1,0,0,1,45.86,28.16ZM84.09,54.72a62.87,62.87,0,0,1,5.49,20.44H58.77V34C70.11,36.35,78.61,43.27,84.09,54.72ZM78.21,30.55C82,25,81,17.48,79.72,12.6c3.61,3.29,8.59,9.13,9,16.63.32,5.52-1.85,11.12-6.45,16.73a37.83,37.83,0,0,0-11-10.25A13.87,13.87,0,0,0,78.21,30.55ZM6.27,80.25a2.1,2.1,0,0,1,2.09-2.09H91.19a2.09,2.09,0,0,1,2.08,2.09v7.82a2.09,2.09,0,0,1-2.08,2.09H8.36a2.1,2.1,0,0,1-2.09-2.09Z"/><path d="M12.27,88.24a4.08,4.08,0,1,0-4.08-4.08A4.09,4.09,0,0,0,12.27,88.24Zm0-5.16a1.08,1.08,0,1,1-1.08,1.08A1.08,1.08,0,0,1,12.27,83.08Z"/><path d="M27.27,88.24a4.08,4.08,0,1,0-4.08-4.08A4.09,4.09,0,0,0,27.27,88.24Zm0-3a1.08,1.08,0,1,1,1.09-1.08A1.08,1.08,0,0,1,27.27,85.24Z"/><path d="M38.19,84.16a4.09,4.09,0,1,0,4.08-4.08A4.08,4.08,0,0,0,38.19,84.16Zm5.17,0a1.09,1.09,0,1,1-1.09-1.08A1.08,1.08,0,0,1,43.36,84.16Z"/><path d="M57.27,88.24a4.08,4.08,0,1,0-4.08-4.08A4.09,4.09,0,0,0,57.27,88.24Zm0-5.16a1.08,1.08,0,1,1-1.08,1.08A1.08,1.08,0,0,1,57.27,83.08Z"/><path d="M68.19,84.16a4.09,4.09,0,1,0,4.08-4.08A4.08,4.08,0,0,0,68.19,84.16Zm4.08,1.08a1.08,1.08,0,1,1,1.09-1.08A1.08,1.08,0,0,1,72.27,85.24Z"/><path d="M87.27,80.08a4.08,4.08,0,1,0,4.09,4.08A4.08,4.08,0,0,0,87.27,80.08Zm0,5.16a1.08,1.08,0,1,1,1.09-1.08A1.08,1.08,0,0,1,87.27,85.24Z"/><path d="M49.77,61.52a4.09,4.09,0,1,0,4.09,4.09A4.09,4.09,0,0,0,49.77,61.52Zm0,5.17a1.09,1.09,0,1,1,1.09-1.08A1.09,1.09,0,0,1,49.77,66.69Z"/><path d="M49.77,46.52a4.09,4.09,0,1,0,4.09,4.09A4.09,4.09,0,0,0,49.77,46.52Zm0,5.17a1.09,1.09,0,1,1,1.09-1.08A1.09,1.09,0,0,1,49.77,51.69Z"/><path d="M45.69,35.61a4.09,4.09,0,1,0,4.08-4.09A4.08,4.08,0,0,0,45.69,35.61Zm4.08,1.08a1.09,1.09,0,1,1,1.09-1.08A1.09,1.09,0,0,1,49.77,36.69Z"/></svg>